<svg xmlns="http://www.w3.org/2000/svg" width="194.868" height="188.979" viewBox="0 0 194.868 188.979">
  <g id="Login-amico" transform="translate(-13.44 -29.071)">
    <g id="freepik--Floor--inject-8" transform="translate(13.44 105.542)">
      <ellipse id="freepik--floor--inject-8-2" data-name="freepik--floor--inject-8" cx="97.434" cy="56.254" rx="97.434" ry="56.254" fill="#f0f0f0"/>
    </g>
    <g id="freepik--Shadow--inject-8" transform="translate(19.363 113.296)">
      <path id="freepik--shadow--inject-8-2" data-name="freepik--shadow--inject-8" d="M377.564,374.354c-6.389-3.689-6.389-9.669,0-13.357s16.748-3.689,23.138,0,6.389,9.669,0,13.357S383.954,378.043,377.564,374.354Z" transform="translate(-230.097 -306.335)" fill="#e0e0e0"/>
      <path id="freepik--shadow--inject-8-3" data-name="freepik--shadow--inject-8" d="M45.279,301.272l-16.806-9.7a1.046,1.046,0,0,1,0-1.981l97.757-56.44a3.792,3.792,0,0,1,3.428,0l16.81,9.7a1.046,1.046,0,0,1,0,1.981l-97.757,56.44a3.8,3.8,0,0,1-3.432,0Z" transform="translate(-27.763 -232.74)" fill="#e0e0e0"/>
    </g>
    <g id="freepik--Device--inject-8" transform="translate(31.867 29.071)">
      <g id="freepik--device--inject-8-2" data-name="freepik--device--inject-8" transform="translate(0)">
        <path id="Path_994" data-name="Path 994" d="M180.79,296.751l14.449-8.354a3.788,3.788,0,0,0,2.233-3.114v-2.01l-14.987-8.453a3.16,3.16,0,0,1-1.439-2.481V254.52L155.82,269.1v17.811a3.184,3.184,0,0,0,1.439,2.481l12.754,7.344A11.859,11.859,0,0,0,180.79,296.751Z" transform="translate(-115.367 -161.288)" fill="#5448d6"/>
        <g id="Group_193" data-name="Group 193" transform="translate(40.453 93.232)" opacity="0.6">
          <path id="Path_995" data-name="Path 995" d="M180.79,296.751l14.449-8.354a3.788,3.788,0,0,0,2.233-3.114v-2.01l-14.987-8.453a3.16,3.16,0,0,1-1.439-2.481V254.52L155.82,269.1v17.811a3.184,3.184,0,0,0,1.439,2.481l12.754,7.344A11.859,11.859,0,0,0,180.79,296.751Z" transform="translate(-155.82 -254.52)"/>
        </g>
        <path id="Path_996" data-name="Path 996" d="M161.858,306.811v2l-4.623-2.667a3.172,3.172,0,0,1-1.435-2.481V285.845l4.805-2.775c.1,1.22.207,2.481.31,3.722l-3.379,1.944v13.916a3.155,3.155,0,0,0,1.439,2.481Z" transform="translate(-115.356 -178.031)" opacity="0.3"/>
        <path id="Path_997" data-name="Path 997" d="M160,290.011a3.176,3.176,0,0,0,1.439,2.481l11.008,6.344a11.936,11.936,0,0,0,10.789,0l14.474-8.354c2.982-1.72,2.982-4.508,0-6.228l-11.017-6.344a3.18,3.18,0,0,1-1.435-2.481V261.51l-25.226,14.581Z" transform="translate(-117.819 -165.387)" fill="#5448d6"/>
        <path id="Path_998" data-name="Path 998" d="M160,290.011a3.176,3.176,0,0,0,1.439,2.481l11.008,6.344a11.936,11.936,0,0,0,10.789,0l14.474-8.354c2.982-1.72,2.982-4.508,0-6.228l-11.017-6.344a3.18,3.18,0,0,1-1.435-2.481V261.51l-25.226,14.581Z" transform="translate(-117.819 -165.387)" opacity="0.3"/>
        <path id="Path_999" data-name="Path 999" d="M189.633,279.611h0l-2.932-1.691a3.18,3.18,0,0,1-1.435-2.481V261.51L160.04,276.091v13.92a3.176,3.176,0,0,0,1.439,2.481l2.895,1.654Z" transform="translate(-117.842 -165.387)" opacity="0.5"/>
        <path id="Path_1000" data-name="Path 1000" d="M225.556,324.06v2.01a3.8,3.8,0,0,1-2.233,3.114l-14.474,8.349a10.848,10.848,0,0,1-5.149,1.278v-2a10.847,10.847,0,0,0,5.149-1.278l14.474-8.358A3.791,3.791,0,0,0,225.556,324.06Z" transform="translate(-143.447 -202.07)" fill="#5448d6"/>
        <path id="Path_1001" data-name="Path 1001" d="M225.556,324.06v2.01a3.8,3.8,0,0,1-2.233,3.114l-14.474,8.349a10.848,10.848,0,0,1-5.149,1.278v-2a10.847,10.847,0,0,0,5.149-1.278l14.474-8.358A3.791,3.791,0,0,0,225.556,324.06Z" transform="translate(-143.447 -202.07)" opacity="0.5"/>
        <path id="Path_1002" data-name="Path 1002" d="M59.654,170.993a3.867,3.867,0,0,0,3.486-.062l97.6-56.345a3.978,3.978,0,0,0,1.8-3.114V32.519a3.368,3.368,0,0,0-5.161-3l-97.6,56.361A3.962,3.962,0,0,0,58,89v78.941a3.854,3.854,0,0,0,1.654,3.048Z" transform="translate(-58 -29.071)" fill="#5448d6"/>
        <path id="Path_1003" data-name="Path 1003" d="M67.909,174l97.6-56.345a3.966,3.966,0,0,0,1.8-3.114V35.589c0-1.146-.806-1.613-1.8-1.038L67.909,90.9a3.974,3.974,0,0,0-1.8,3.114v78.949C66.11,174.1,66.916,174.572,67.909,174Z" transform="translate(-62.756 -32.14)" fill="#5448d6"/>
        <path id="Path_1004" data-name="Path 1004" d="M67.909,174l97.6-56.345a3.966,3.966,0,0,0,1.8-3.114V35.589c0-1.146-.806-1.613-1.8-1.038L67.909,90.9a3.974,3.974,0,0,0-1.8,3.114v78.949C66.11,174.1,66.916,174.572,67.909,174Z" transform="translate(-62.756 -32.14)" opacity="0.5"/>
        <path id="Path_1005" data-name="Path 1005" d="M62.888,362.44A3.335,3.335,0,0,1,58,359.317V352.13l3.37,1.952v7.187C61.35,362.316,62.015,362.791,62.888,362.44Z" transform="translate(-58 -218.532)" fill="#5448d6"/>
        <path id="Path_1006" data-name="Path 1006" d="M62.888,362.44A3.335,3.335,0,0,1,58,359.317V352.13l3.37,1.952v7.187C61.35,362.316,62.015,362.791,62.888,362.44Z" transform="translate(-58 -218.532)" opacity="0.5"/>
        <path id="Path_1007" data-name="Path 1007" d="M66.1,273.977v7.187c0,1.146.827,1.609,1.8,1.038l97.6-56.345a3.978,3.978,0,0,0,1.8-3.1v-7.22Z" transform="translate(-62.75 -138.427)" fill="#5448d6"/>
        <path id="Path_1008" data-name="Path 1008" d="M66.11,273.961v7.2c0,1.146.827,1.609,1.8,1.038l97.6-56.345a3.978,3.978,0,0,0,1.795-3.1v-7.22Z" transform="translate(-62.756 -138.427)" opacity="0.3"/>
        <path id="Path_1009" data-name="Path 1009" d="M74.26,166.477V102.953a2.378,2.378,0,0,1,1.075-1.869l92.277-53.293c.6-.343,1.079-.066,1.079.62v63.557a2.382,2.382,0,0,1-1.079,1.869L75.339,167.118C74.744,167.461,74.26,167.18,74.26,166.477Z" transform="translate(-67.536 -39.963)" fill="#5448d6"/>
        <path id="Path_1010" data-name="Path 1010" d="M74.26,166.477V102.953a2.378,2.378,0,0,1,1.075-1.869l92.277-53.293c.6-.343,1.079-.066,1.079.62v63.557a2.382,2.382,0,0,1-1.079,1.869L75.339,167.118C74.744,167.461,74.26,167.18,74.26,166.477Z" transform="translate(-67.536 -39.963)" fill="#263238"/>
        <path id="Path_1011" data-name="Path 1011" d="M186.057,291.4a3.722,3.722,0,0,0-1.687,2.92c0,1.075.757,1.514,1.687.976a3.722,3.722,0,0,0,1.687-2.924C187.744,291.3,186.988,290.865,186.057,291.4Z" transform="translate(-132.111 -182.783)" fill="#5448d6"/>
        <path id="Path_1012" data-name="Path 1012" d="M61.883,171.635a3.825,3.825,0,0,0-.533,1.774v73.685L58,245.142V171.478a3.681,3.681,0,0,1,.529-1.778Z" transform="translate(-58 -111.544)" opacity="0.7"/>
        <path id="Path_1013" data-name="Path 1013" d="M163.242,32.245c-.128-.926-.877-1.241-1.782-.74L63.864,87.85a3.7,3.7,0,0,0-1.27,1.336L59.22,87.238A3.722,3.722,0,0,1,60.494,85.9l97.6-56.341a3.359,3.359,0,0,1,5.153,2.684Z" transform="translate(-58.715 -29.094)" opacity="0.3"/>
      </g>
    </g>
    <g id="freepik--Window--inject-8" transform="translate(47.389 41.842)">
      <g id="freepik--window--inject-8-2" data-name="freepik--window--inject-8" transform="translate(0 0)">
        <g id="freepik--window--inject-8-3" data-name="freepik--window--inject-8">
          <g id="freepik--window--inject-8-4" data-name="freepik--window--inject-8">
            <path id="Path_1014" data-name="Path 1014" d="M189.833,60.055a.893.893,0,0,0-.918.07l-92.087,53.2a2.775,2.775,0,0,0-1.241,2.179v63.135a1.241,1.241,0,0,0,.533,1.1c.2.112,1.286.74,1.609.914a.724.724,0,0,0,.728-.041l92.066-53.2a2.775,2.775,0,0,0,1.241-2.179V61.768a.868.868,0,0,0-.389-.827C191.168,60.8,190.064,60.192,189.833,60.055Z" transform="translate(-95.564 -59.958)" fill="#5448d6"/>
            <path id="Path_1015" data-name="Path 1015" d="M100.721,115.5l92.091-53.177c.695-.414,1.241-.074,1.241.728v63.462a2.775,2.775,0,0,1-1.241,2.179l-92.091,53.2c-.695.414-1.241-.252-1.241-1.055V117.676a2.783,2.783,0,0,1,1.241-2.179Z" transform="translate(-97.848 -61.238)" fill="#fafafa"/>
            <path id="Path_1016" data-name="Path 1016" d="M193.374,62.564h0c.244,0,.281.306.281.488v63.462a2.349,2.349,0,0,1-1.055,1.82l-92.079,53.2a.414.414,0,0,1-.207.066c-.232,0-.414-.356-.414-.761V117.68a2.374,2.374,0,0,1,1.034-1.832l92.083-53.169a.732.732,0,0,1,.356-.116m0-.414a1.158,1.158,0,0,0-.562.174L100.721,115.5a2.783,2.783,0,0,0-1.241,2.179v63.156c0,.637.356,1.174.827,1.174a.827.827,0,0,0,.414-.12l92.087-53.2a2.775,2.775,0,0,0,1.241-2.179V63.052c0-.571-.281-.9-.695-.9Z" transform="translate(-97.848 -61.242)" fill="#e0e0e0"/>
            <path id="Path_1017" data-name="Path 1017" d="M96.066,264.278c.136.07,1.117.629,1.547.877a1.286,1.286,0,0,1-.463-1.059V205.063l-1.613-.943v59.062A1.241,1.241,0,0,0,96.066,264.278Z" transform="translate(-95.534 -144.502)" fill="#f0f0f0"/>
            <path id="Path_1018" data-name="Path 1018" d="M194.069,63.041c0-.794-.567-1.117-1.241-.715L100.721,115.5a2.783,2.783,0,0,0-1.241,2.179v4.135l94.589-54.641Z" transform="translate(-97.848 -61.244)" fill="#5448d6"/>
            <g id="Group_194" data-name="Group 194" transform="translate(0.387)" opacity="0.4">
              <path id="Path_1019" data-name="Path 1019" d="M191.047,61.036,98.955,114.209a2.585,2.585,0,0,0-.885.939l-1.6-.93a2.481,2.481,0,0,1,.877-.9l92.087-53.2a.893.893,0,0,1,.918-.074c.223.141,1.27.732,1.538.877a.91.91,0,0,0-.844.112Z" transform="translate(-96.47 -59.955)" fill="#fff"/>
            </g>
            <path id="Path_1020" data-name="Path 1020" d="M95.54,196.529v-4.1a2.585,2.585,0,0,1,.385-1.261l1.6.926a2.514,2.514,0,0,0-.376,1.241v4.135Z" transform="translate(-95.538 -136.907)" opacity="0.15"/>
          </g>
        </g>
        <path id="Path_1021" data-name="Path 1021" d="M201.726,179.1l-55.154,31.843a2.031,2.031,0,0,0-.922,1.592v15.814a2.031,2.031,0,0,0,.922,1.592l1.609.926a2.043,2.043,0,0,0,1.844,0l55.146-31.843a2.039,2.039,0,0,0,.922-1.6V181.615a2.03,2.03,0,0,0-.922-1.592l-1.613-.926a2.03,2.03,0,0,0-1.832.008Z" transform="translate(-124.925 -129.701)" fill="#5448d6"/>
        <path id="Path_1022" data-name="Path 1022" d="M206.48,181.483c-.066-.476-.451-.649-.914-.38l-55.154,31.843a1.857,1.857,0,0,0-.649.686l-3.453-1.993a1.89,1.89,0,0,1,.645-.678l55.158-31.843a2.03,2.03,0,0,1,1.84,0l1.613.926A2.068,2.068,0,0,1,206.48,181.483Z" transform="translate(-125.312 -129.71)" fill="#fff" opacity="0.5"/>
        <path id="Path_1023" data-name="Path 1023" d="M149.868,277.391a2.068,2.068,0,0,1-1.683-.074l-1.613-.926a2.039,2.039,0,0,1-.922-1.592V258.984a1.915,1.915,0,0,1,.273-.914l3.453,1.993a1.853,1.853,0,0,0-.273.906v15.818C149.1,277.312,149.434,277.556,149.868,277.391Z" transform="translate(-124.925 -176.141)" fill="#263238"/>
        <path id="Path_1024" data-name="Path 1024" d="M154.934,215.894l55.154-31.843c.509-.294.922-.058.922.529V200.4a2.039,2.039,0,0,1-.922,1.6l-55.146,31.843c-.509.294-.922.054-.922-.533V217.49A2.039,2.039,0,0,1,154.934,215.894Z" transform="translate(-129.834 -132.658)" fill="#5448d6"/>
        <path id="Path_1025" data-name="Path 1025" d="M187.5,199.84l-40.527,23.4a1.89,1.89,0,0,0-.645.678l3.453,1.993a1.857,1.857,0,0,1,.649-.686l40.527-23.4Z" transform="translate(-125.324 -141.992)" fill="#455a64"/>
        <path id="Path_1026" data-name="Path 1026" d="M195.449,204.65l-40.527,23.4a2.039,2.039,0,0,0-.922,1.6v15.81c0,.587.414.827.922.533l40.527-23.4Z" transform="translate(-129.822 -144.813)" fill="#37474f"/>
        <path id="Path_1027" data-name="Path 1027" d="M176.6,239.13l20.913-12.071c.864-.5,1.567-.145,1.567.794a3.362,3.362,0,0,1-1.571,2.605L176.6,242.533c-.864.5-1.571.145-1.571-.794A3.374,3.374,0,0,1,176.6,239.13Z" transform="translate(-142.155 -157.821)" fill="#5448d6"/>
        <path id="Path_1028" data-name="Path 1028" d="M186.668,266.22a.041.041,0,0,1,.062,0,.153.153,0,0,1,.025.1v2.353a3.947,3.947,0,0,1-.058.678,2.626,2.626,0,0,1-.174.6,2.112,2.112,0,0,1-.289.488,1.517,1.517,0,0,1-.414.343.765.765,0,0,1-.414.124.413.413,0,0,1-.289-.153.931.931,0,0,1-.174-.414,2.856,2.856,0,0,1-.054-.608v-2.357a.3.3,0,0,1,.025-.12.149.149,0,0,1,.062-.083l.26-.153a.046.046,0,0,1,.062,0,.145.145,0,0,1,.025.1v2.324a1.568,1.568,0,0,0,.037.38.414.414,0,0,0,.1.215.186.186,0,0,0,.153.066.414.414,0,0,0,.2-.066.892.892,0,0,0,.2-.161.98.98,0,0,0,.157-.248,1.561,1.561,0,0,0,.1-.331,2.186,2.186,0,0,0,.033-.414v-2.328a.3.3,0,0,1,.029-.12.149.149,0,0,1,.062-.083Z" transform="translate(-147.937 -180.913)" fill="#fafafa"/>
        <path id="Path_1029" data-name="Path 1029" d="M191.637,268.621a.149.149,0,0,0-.021-.087.091.091,0,0,0-.079-.029.563.563,0,0,0-.153,0l-.24.045a.488.488,0,0,1-.236,0,.285.285,0,0,1-.149-.112.592.592,0,0,1-.079-.219,1.547,1.547,0,0,1,.132-1.038,1.786,1.786,0,0,1,.207-.331,1.037,1.037,0,0,1,.281-.244.716.716,0,0,1,.285-.1.347.347,0,0,1,.211.045.343.343,0,0,1,.136.157.658.658,0,0,1,.054.244.2.2,0,0,1-.025.12.149.149,0,0,1-.062.083l-.248.145a.074.074,0,0,1-.074,0l-.054-.041a.136.136,0,0,0-.074-.029.339.339,0,0,0-.149.054.637.637,0,0,0-.17.149.36.36,0,0,0-.074.227.26.26,0,0,0,0,.1.1.1,0,0,0,.07.041.416.416,0,0,0,.136,0l.232-.041a.391.391,0,0,1,.414.108.869.869,0,0,1,.12.509,1.451,1.451,0,0,1-.05.364,1.767,1.767,0,0,1-.141.372,1.57,1.57,0,0,1-.227.339,1.171,1.171,0,0,1-.3.252.674.674,0,0,1-.3.1.372.372,0,0,1-.219-.062.381.381,0,0,1-.141-.178.62.62,0,0,1-.05-.248.223.223,0,0,1,.025-.124.149.149,0,0,1,.062-.083l.248-.145c.033,0,.058-.021.074,0l.054.058a.124.124,0,0,0,.087.041.265.265,0,0,0,.161-.054.774.774,0,0,0,.2-.161.512.512,0,0,0,.07-.112.248.248,0,0,0,.058-.116Z" transform="translate(-151.285 -181.088)" fill="#fafafa"/>
        <path id="Path_1030" data-name="Path 1030" d="M195.15,265.951a3.7,3.7,0,0,1,.054-.641,3.086,3.086,0,0,1,.161-.583,1.984,1.984,0,0,1,.248-.476,1.063,1.063,0,0,1,.331-.31.451.451,0,0,1,.327-.07.414.414,0,0,1,.248.17,1.034,1.034,0,0,1,.161.372,2.309,2.309,0,0,1,.058.529v.256a.248.248,0,0,1-.029.124.149.149,0,0,1-.062.083l-1.075.624a.645.645,0,0,0,.029.215.269.269,0,0,0,.083.12.174.174,0,0,0,.12.037.339.339,0,0,0,.141-.05.6.6,0,0,0,.165-.132.758.758,0,0,0,.108-.157,1.1,1.1,0,0,1,.058-.1.265.265,0,0,1,.062-.054l.256-.149a.05.05,0,0,1,.062,0,.116.116,0,0,1,.025.1.8.8,0,0,1-.05.236,1.794,1.794,0,0,1-.141.331,1.9,1.9,0,0,1-.232.339,1.241,1.241,0,0,1-.314.269.5.5,0,0,1-.331.079.414.414,0,0,1-.248-.174,1.1,1.1,0,0,1-.161-.414A2.811,2.811,0,0,1,195.15,265.951Zm.794-1.319a.483.483,0,0,0-.161.141.793.793,0,0,0-.112.19,1.4,1.4,0,0,0-.07.211,1.357,1.357,0,0,0-.029.2l.728-.414a1.2,1.2,0,0,0-.025-.17.273.273,0,0,0-.058-.136.157.157,0,0,0-.108-.066A.248.248,0,0,0,195.944,264.632Z" transform="translate(-153.955 -179.54)" fill="#fafafa"/>
        <path id="Path_1031" data-name="Path 1031" d="M201.015,261.758a.665.665,0,0,0-.281.314,1.423,1.423,0,0,0-.087.546v1.493a.3.3,0,0,1-.025.124.149.149,0,0,1-.062.083l-.244.141a.041.041,0,0,1-.062,0,.153.153,0,0,1-.025-.1v-2.676a.331.331,0,0,1,.025-.124.17.17,0,0,1,.062-.083l.244-.141a.045.045,0,0,1,.062,0,.132.132,0,0,1,.025.091v.132a1.7,1.7,0,0,1,.182-.314.752.752,0,0,1,.248-.219l.149-.087a.041.041,0,0,1,.058,0,.153.153,0,0,1,.029.1v.376a.3.3,0,0,1-.029.124.169.169,0,0,1-.058.083Z" transform="translate(-156.933 -177.819)" fill="#fafafa"/>
        <path id="Path_1032" data-name="Path 1032" d="M207.461,258.7a.041.041,0,0,1,.062,0,.153.153,0,0,1,.025.1v.414a.331.331,0,0,1-.025.124.215.215,0,0,1-.062.079l-1.414.827a.045.045,0,0,1-.062,0,.141.141,0,0,1-.025-.091v-3.722a.331.331,0,0,1,.025-.124.157.157,0,0,1,.062-.079l.261-.153a.046.046,0,0,1,.062,0,.141.141,0,0,1,.025.091v3.147Z" transform="translate(-160.294 -174.963)" fill="#fafafa"/>
        <path id="Path_1033" data-name="Path 1033" d="M211.511,254.925a.5.5,0,0,1,.318-.087.38.38,0,0,1,.252.124.794.794,0,0,1,.165.306,1.771,1.771,0,0,1,.074.451v.583a2.9,2.9,0,0,1-.074.533,2.59,2.59,0,0,1-.165.5,1.844,1.844,0,0,1-.252.414,1.141,1.141,0,0,1-.318.285.542.542,0,0,1-.323.087.376.376,0,0,1-.248-.124.7.7,0,0,1-.165-.3,1.772,1.772,0,0,1-.074-.451v-.579a2.625,2.625,0,0,1,.07-.538,2.739,2.739,0,0,1,.17-.5,2,2,0,0,1,.248-.414A1.1,1.1,0,0,1,211.511,254.925Zm.389,1.067a.827.827,0,0,0-.046-.269.256.256,0,0,0-.091-.132.178.178,0,0,0-.12-.029.359.359,0,0,0-.132.054.583.583,0,0,0-.132.1.742.742,0,0,0-.12.165.906.906,0,0,0-.091.24,1.651,1.651,0,0,0-.05.323v.517a.975.975,0,0,0,.05.269.252.252,0,0,0,.091.132.153.153,0,0,0,.12.025.372.372,0,0,0,.132-.05.689.689,0,0,0,.132-.1.9.9,0,0,0,.12-.165,1.075,1.075,0,0,0,.091-.24,1.476,1.476,0,0,0,.045-.323.9.9,0,0,0,0-.116V256.1A.873.873,0,0,0,211.9,255.992Z" transform="translate(-163.074 -174.245)" fill="#fafafa"/>
        <path id="Path_1034" data-name="Path 1034" d="M216.536,255.235a.587.587,0,0,0,.141-.12,1.012,1.012,0,0,0,.128-.19,1.274,1.274,0,0,0,.1-.261,1.239,1.239,0,0,0,.037-.31v-.211c0,.041-.041.091-.07.149a1.24,1.24,0,0,1-.1.174,1.657,1.657,0,0,1-.141.165.729.729,0,0,1-.178.136.38.38,0,0,1-.294.058.414.414,0,0,1-.223-.17,1.124,1.124,0,0,1-.145-.347,2.379,2.379,0,0,1-.058-.476v-.4a3.494,3.494,0,0,1,.058-.542,3.263,3.263,0,0,1,.145-.517,2.067,2.067,0,0,1,.223-.414.943.943,0,0,1,.294-.281.583.583,0,0,1,.178-.07.385.385,0,0,1,.141,0,.257.257,0,0,1,.1.054.377.377,0,0,1,.07.07V251.6a.331.331,0,0,1,.025-.124.157.157,0,0,1,.062-.079l.244-.145a.045.045,0,0,1,.062,0,.153.153,0,0,1,.029.1v2.688a2.837,2.837,0,0,1-.219,1.174,1.5,1.5,0,0,1-.6.7.637.637,0,0,1-.306.1.414.414,0,0,1-.244-.062.559.559,0,0,1-.165-.2.827.827,0,0,1-.066-.3.223.223,0,0,1,.025-.124.149.149,0,0,1,.062-.083l.219-.124a.054.054,0,0,1,.079,0,.414.414,0,0,1,.054.07.194.194,0,0,0,.116.091C216.359,255.318,216.433,255.276,216.536,255.235Zm-.389-2.006v.323a.7.7,0,0,0,.132.463.2.2,0,0,0,.265,0,.711.711,0,0,0,.269-.323,1.5,1.5,0,0,0,.124-.546v-.438a.633.633,0,0,0-.124-.414.2.2,0,0,0-.269,0,.716.716,0,0,0-.265.318A1.584,1.584,0,0,0,216.148,253.229Z" transform="translate(-166.024 -172.136)" fill="#fafafa"/>
        <path id="Path_1035" data-name="Path 1035" d="M221.477,247.155a.045.045,0,0,1,.058,0,.132.132,0,0,1,.029.1v.451a.273.273,0,0,1-.029.124.178.178,0,0,1-.058.079l-.277.161a.041.041,0,0,1-.062,0,.12.12,0,0,1-.029-.091v-.451a.273.273,0,0,1,.029-.124.157.157,0,0,1,.062-.079Zm.07,3.883a.3.3,0,0,1-.025.12.2.2,0,0,1-.062.083l-.248.141a.037.037,0,0,1-.058,0,.132.132,0,0,1-.029-.1v-2.676a.273.273,0,0,1,.029-.124.194.194,0,0,1,.058-.083l.248-.141a.046.046,0,0,1,.062,0,.141.141,0,0,1,.025.091Z" transform="translate(-169.178 -169.734)" fill="#fafafa"/>
        <path id="Path_1036" data-name="Path 1036" d="M225.195,249.874a.331.331,0,0,1-.025.124.157.157,0,0,1-.062.079l-.248.145a.041.041,0,0,1-.058,0,.132.132,0,0,1-.029-.1v-1.456a1.013,1.013,0,0,0-.091-.5c-.058-.1-.149-.12-.277-.046a.678.678,0,0,0-.269.36,1.737,1.737,0,0,0-.1.608v1.46a.331.331,0,0,1-.025.124.149.149,0,0,1-.062.083l-.244.141a.041.041,0,0,1-.062,0,.132.132,0,0,1-.025-.091v-2.676a.3.3,0,0,1,.025-.124.149.149,0,0,1,.062-.083l.244-.141a.041.041,0,0,1,.062,0,.153.153,0,0,1,.025.1v.128a2.13,2.13,0,0,1,.2-.36.777.777,0,0,1,.269-.252.451.451,0,0,1,.327-.083.335.335,0,0,1,.215.17,1.051,1.051,0,0,1,.116.36,3.725,3.725,0,0,1,.033.5Z" transform="translate(-170.65 -169.831)" fill="#fafafa"/>
        <path id="Path_1037" data-name="Path 1037" d="M271.941,210.949l-4.015,2.316.624-5.632a1.894,1.894,0,0,1-.79-1.778,5.154,5.154,0,0,1,2.175-4.135c1.2-.678,2.171.041,2.171,1.654a5.484,5.484,0,0,1-.786,2.688Z" transform="translate(-196.538 -142.945)" fill="#455a64"/>
        <path id="Path_1038" data-name="Path 1038" d="M272.18,221.509l-3.536-2.039-.484,4.359Z" transform="translate(-196.772 -153.504)" fill="#37474f"/>
        <path id="Path_1039" data-name="Path 1039" d="M270.373,201.681a4.735,4.735,0,0,0-1.853,2.461l3.238,1.869h0a5.483,5.483,0,0,0,.786-2.688C272.552,201.723,271.58,200.991,270.373,201.681Z" transform="translate(-196.983 -142.919)" fill="#37474f"/>
        <path id="Path_1040" data-name="Path 1040" d="M207.409,155.981c-1.377-.794-3.275-.682-5.376.529a16.785,16.785,0,0,0-7.593,13.151c0,2.432.86,4.135,2.241,4.921l2.676,1.555c1.373.794,3.271.678,5.376-.533a16.778,16.778,0,0,0,7.593-13.151c0-2.419-.852-4.135-2.225-4.909" transform="translate(-153.538 -115.973)" fill="#5448d6"/>
        <path id="Path_1041" data-name="Path 1041" d="M208.553,160.28a16.791,16.791,0,0,0-7.593,13.151c0,4.838,3.4,6.807,7.593,4.384a16.774,16.774,0,0,0,7.593-13.151C216.141,159.821,212.742,157.861,208.553,160.28Z" transform="translate(-157.362 -118.184)" fill="#5448d6"/>
        <path id="Path_1042" data-name="Path 1042" d="M217.562,183.774v.554a12.212,12.212,0,0,1-4.189,4.392c-1.633.939-3.11,1.042-4.193.442v-1.141A7.444,7.444,0,0,1,212.6,182.1l1.1-.637a2.618,2.618,0,0,1,2.671-.2A2.779,2.779,0,0,1,217.562,183.774Z" transform="translate(-162.183 -130.933)" fill="#5448d6"/>
        <path id="Path_1043" data-name="Path 1043" d="M208.974,155.983l2.688,1.563c-1.373-.8-3.271-.686-5.376.525a16.545,16.545,0,0,0-6.484,7.952l-2.692-1.559a16.4,16.4,0,0,1,6.484-7.952C205.7,155.3,207.6,155.189,208.974,155.983Z" transform="translate(-155.104 -115.975)" fill="#fff" opacity="0.4"/>
        <path id="Path_1044" data-name="Path 1044" d="M199.268,196.194l-2.576-1.493c-1.381-.786-2.241-2.481-2.241-4.921l2.692,1.563C197.159,193.7,197.953,195.379,199.268,196.194Z" transform="translate(-153.544 -136.092)" opacity="0.2"/>
        <path id="Path_1045" data-name="Path 1045" d="M195.582,177.21l2.692,1.559a14.106,14.106,0,0,0-1.092,5.2h0L194.49,182.4a14.156,14.156,0,0,1,1.092-5.194Z" transform="translate(-153.568 -128.72)" opacity="0.1"/>
        <path id="Path_1046" data-name="Path 1046" d="M214.831,173.077a1.443,1.443,0,0,1-.732-.19,1.791,1.791,0,0,1-.79-1.654,4.723,4.723,0,0,1,2.167-3.755h0a1.621,1.621,0,0,1,2.614,1.514,4.731,4.731,0,0,1-2.167,3.755A2.187,2.187,0,0,1,214.831,173.077Z" transform="translate(-164.6 -122.805)" fill="#fff"/>
        <path id="Path_1047" data-name="Path 1047" d="M216.371,181.253a2.618,2.618,0,0,0-2.671.2l-1.1.637a7.444,7.444,0,0,0-3.416,5.922v1.146c1.083.6,2.56.5,4.193-.443a12.212,12.212,0,0,0,4.189-4.392v-.554A2.759,2.759,0,0,0,216.371,181.253Z" transform="translate(-162.183 -130.928)" fill="#fff"/>
      </g>
    </g>
    <g id="freepik--Plants--inject-8" transform="translate(186.593 148.784)">
      <g id="freepik--plants--inject-8-2" data-name="freepik--plants--inject-8">
        <path id="Path_1048" data-name="Path 1048" d="M432.15,333.481A23.019,23.019,0,0,1,435.1,324.9c2.4-3.751,5.7-6.087,8.784-6.331s5.57,2.593,2.275,4.549-9.152,3.933-11.848,11.211Z" transform="translate(-432.15 -318.554)" fill="#5448d6"/>
        <path id="Path_1049" data-name="Path 1049" d="M432.15,333.481A23.019,23.019,0,0,1,435.1,324.9c2.4-3.751,5.7-6.087,8.784-6.331s5.57,2.593,2.275,4.549-9.152,3.933-11.848,11.211Z" transform="translate(-432.15 -318.554)" opacity="0.1"/>
        <path id="Path_1050" data-name="Path 1050" d="M434.147,334.292h-.033a.165.165,0,0,1-.091-.215c3.25-8,9.437-11.348,12.257-11.993a.166.166,0,1,1,.074.323c-2.762.637-8.829,3.92-12.026,11.8A.161.161,0,0,1,434.147,334.292Z" transform="translate(-433.241 -320.622)" fill="#fff"/>
        <path id="Path_1051" data-name="Path 1051" d="M451.182,345.952a2.715,2.715,0,0,1-1.6,1.216A3.163,3.163,0,0,0,447.9,348.3c-.695,1.2.447,2.895-.3,4.057a2.167,2.167,0,0,1-1.472.852c-.476.087-.959.087-1.439.128a5.307,5.307,0,0,1-.686-.054,3.13,3.13,0,0,0-1.989.211c-.955.538-1.241,1.741-1.828,2.671a4.549,4.549,0,0,1-3.213,2.018,3.14,3.14,0,0,1-1.654-.112.486.486,0,0,1-.091-.058h0c-.062-.066-.136-.153-.17-.2a.067.067,0,0,1,0-.029,6.837,6.837,0,0,1,.12-1.915v-.116c-.029-.748-.05-1.493-.066-2.237q-.054-2.068-.041-4.135a6.51,6.51,0,0,1,.281-2.709c.414-.926,1.456-.947,1.849-1.853.157-.364.24-.749.393-1.117a3.2,3.2,0,0,1,2.721-1.9c1.815-.091,3.441,1.377,5.256,1.241.467-.037.926-.182,1.389-.265a3.924,3.924,0,0,1,3.995,1.385A1.907,1.907,0,0,1,451.182,345.952Z" transform="translate(-433.826 -332.187)" fill="#5448d6"/>
        <path id="Path_1052" data-name="Path 1052" d="M434.54,358.209h0a.157.157,0,0,1-.108-.19c2.506-9.4,12.406-10.752,14.734-10.595a.153.153,0,0,1,.145.165.157.157,0,0,1-.165.141c-2.27-.161-11.964,1.166-14.416,10.372a.157.157,0,0,1-.19.107Z" transform="translate(-433.486 -335.478)" fill="#fff"/>
        <path id="Path_1053" data-name="Path 1053" d="M451.4,358.645a.145.145,0,0,1-.083-.041,8.229,8.229,0,0,0-6.745-1.9.161.161,0,0,1-.174-.132.157.157,0,0,1,.128-.178,8.564,8.564,0,0,1,7.03,1.989.153.153,0,0,1,0,.219A.141.141,0,0,1,451.4,358.645Z" transform="translate(-439.332 -340.678)" fill="#fff"/>
      </g>
    </g>
    <g id="freepik--Clouds--inject-8" transform="translate(162.133 45.461)">
      <g id="freepik--clouds--inject-8-2" data-name="freepik--clouds--inject-8">
        <path id="Path_1054" data-name="Path 1054" d="M374.7,73.376l1.315.5V70.985c0-2.3,1.832-2.849,3.821-1.7h0a7.956,7.956,0,0,1,3.606,6.24v.414a1.923,1.923,0,0,1,1.654.256h0a5.732,5.732,0,0,1,2.593,4.5v.19l1.836,1.059a3.78,3.78,0,0,1,1.708,2.957c0,1.092-.765,1.534-1.708.988L374.7,77.321a3.759,3.759,0,0,1-1.7-2.957C373,73.276,373.757,72.834,374.7,73.376Z" transform="translate(-373 -68.704)" fill="#e6e6e6"/>
        <path id="Path_1055" data-name="Path 1055" d="M418.191,72.614l2.386,1.377a2.685,2.685,0,0,1-.021-.314v-.691c0-1.241.86-1.729,1.927-1.112a3.722,3.722,0,0,1,1.15,1.1c.174-1.547,1.389-2.121,2.862-1.274a6.389,6.389,0,0,1,2.895,5v1.034a2.725,2.725,0,0,1-.244,1.2l1.985,1.141a2.374,2.374,0,0,1,1.059,1.857c0,.682-.48.959-1.071.62l-12.927-7.444a2.365,2.365,0,0,1-1.071-1.861C417.12,72.552,417.6,72.275,418.191,72.614Z" transform="translate(-398.875 -70.234)" fill="#e6e6e6"/>
      </g>
    </g>
    <g id="freepik--Character--inject-8" transform="translate(132.858 89.433)">
      <g id="freepik--character--inject-8-2" data-name="freepik--character--inject-8">
        <path id="Path_1056" data-name="Path 1056" d="M366.042,219.183a42.934,42.934,0,0,1-4.582,6.712,48.335,48.335,0,0,1-9.511,2.895,1.509,1.509,0,0,1-1.026-.24,8.609,8.609,0,0,0-2.279-.91c-.666-.227-.947-.546-1.071-.414a.757.757,0,0,0,.07,1.055,5.591,5.591,0,0,0,1.05.786,6.2,6.2,0,0,1-2.771.05c-1.774-.467-2.609.385-1.41,2.312.414.686,2.117,1.791,5.541,1.493a31.013,31.013,0,0,0,3.643-.414c3.284-.7,6.935-1.381,9.181-2.068a5.789,5.789,0,0,0,2.184-1.514c3.776-4.3,5.029-7.373,6.683-10.161l-.141-4.549C368.924,214.126,367.493,216.727,366.042,219.183Z" transform="translate(-326.689 -198.013)" fill="#ffa8a7"/>
        <path id="Path_1057" data-name="Path 1057" d="M398.911,213.94a4.3,4.3,0,0,0-4.094,1.749c-1.836,2.353-5.087,8-5.087,8A5.5,5.5,0,0,0,393.663,227l4.611-6.228S400.457,216.446,398.911,213.94Z" transform="translate(-353.537 -197.827)" fill="#455a64"/>
        <rect id="Rectangle_15" data-name="Rectangle 15" width="3.006" height="5.359" transform="translate(52.338 79.608)" fill="#ffa8a7"/>
        <path id="Path_1058" data-name="Path 1058" d="M406.365,358.8l-3,.108-.153-5.674,3.155-.108Z" transform="translate(-361.442 -279.481)" fill="#ffa8a7"/>
        <path id="Path_1059" data-name="Path 1059" d="M414.55,255.315c0,2.986-.438,27.041-.438,27.041a20.229,20.229,0,0,1,.674,5.752c-.227,4.487-.529,16.281-.529,16.281a3.821,3.821,0,0,1-3.346.066s-2.44-16.542-2.977-20.971c-.471-3.883-1.679-16.736-1.679-16.736l-1.625,15.193a18.709,18.709,0,0,1,.372,4.962c-.141,2.068-1.108,12.77-1.108,12.77a3.974,3.974,0,0,1-3.47.277s-1.712-16.128-1.745-18.022c-.041-2.15,1-26.64,1-26.64Z" transform="translate(-358.784 -222.102)" fill="#37474f"/>
        <path id="Path_1060" data-name="Path 1060" d="M422.029,376.093v-.447c-.289.128-.955,2.783-2.15,3.916-.947.9-2.237,1.94-2.568,2.944s1.8,1.621,2.688,1.46a6.273,6.273,0,0,0,3.259-1.654c.447-.707.658-1.733,1.021-2.246s1.2-1.083,1.4-1.679a3.977,3.977,0,0,0-.17-1.654c-.141-.554-.289-1.162-.471-1.108v.339a2.332,2.332,0,0,1-1.505.529C423.092,376.531,422.025,376.44,422.029,376.093Z" transform="translate(-369.692 -292.672)" fill="#263238"/>
        <path id="Path_1061" data-name="Path 1061" d="M393.363,364.462c-.157,0-.285.236-.629.624a6.616,6.616,0,0,1-1.766,1.323c-1.125.587-3.308,1.489-4.3,1.956-.62.289-.591,1.067.05,1.509a5.592,5.592,0,0,0,4.036.331c1.009-.236,2.324-1.208,3.159-1.154a5.872,5.872,0,0,0,3-.414c.616-.451.368-1.385.194-2.192-.19-.885-.414-2.262-.707-2.2v.31c-.36.571-2.225.8-3.019.385Z" transform="translate(-351.476 -286)" fill="#263238"/>
        <path id="Path_1062" data-name="Path 1062" d="M411.065,279.452a11.05,11.05,0,0,1-4.185-2.5,9.076,9.076,0,0,0,3.209,3.044l-.513,13.568Z" transform="translate(-363.595 -234.805)" fill="#263238"/>
        <path id="Path_1063" data-name="Path 1063" d="M413.747,214.427s2.481.571,2.3,5.053l-.517,7.134v10.711c-2.208,2.506-11.993,2.324-15.363-.2,0,0,.38-12.675.608-17.555.161-3.465.959-5.211,4.367-5.591l4.189.182Z" transform="translate(-359.66 -197.875)" fill="#5448d6"/>
        <path id="Path_1064" data-name="Path 1064" d="M412.392,185.931a4.549,4.549,0,0,1-4.474,4.656c-2.481,0-3.937-2.142-4.475-4.656-.992-4.6,2-4.661,4.475-4.661a4.57,4.57,0,0,1,4.475,4.661Z" transform="translate(-361.465 -178.692)" fill="#263238"/>
        <path id="Path_1065" data-name="Path 1065" d="M428.341,197.09a39.164,39.164,0,0,1-.964,3.912,1.46,1.46,0,0,1-.827.707l.05-2.361Z" transform="translate(-375.13 -187.97)" fill="#263238"/>
        <path id="Path_1066" data-name="Path 1066" d="M428.18,185.451s.492-.124,1.017.695c.447.7.55,2.27-.153,4.135l-1.294.157Z" transform="translate(-375.834 -181.14)" fill="#263238"/>
        <path id="Path_1067" data-name="Path 1067" d="M429.94,185.978l1.588.029a.748.748,0,0,0-.724-.827.881.881,0,0,0-.864.8Z" transform="translate(-377.118 -180.985)" fill="#263238"/>
        <path id="Path_1068" data-name="Path 1068" d="M430.127,184.22l1.174-1.129a.757.757,0,0,0-1.112-.045A.868.868,0,0,0,430.127,184.22Z" transform="translate(-377.112 -179.603)" fill="#263238"/>
        <path id="Path_1069" data-name="Path 1069" d="M413.736,187.495c.26.161.629-.356.951-.707a1.1,1.1,0,0,1,1.844.467,2.141,2.141,0,0,1-1.112,2.643c-1.336.662-1.758-.3-1.758-.3l-.112,5.318c-1.878,2.895-6.137,2.8-4.6-.141v-1.617a8.5,8.5,0,0,1-1.911.1,2.655,2.655,0,0,1-2.014-2.2c-.5-1.886-.7-3.408-.269-7.117.471-4.061,5.012-4.106,7.444-2.481S413.736,187.495,413.736,187.495Z" transform="translate(-362.209 -178.218)" fill="#ffa8a7"/>
        <path id="Path_1070" data-name="Path 1070" d="M406.2,180.129c1.083-.108,2.155-.331,3.242-.414a2.109,2.109,0,0,1,.7.033c.827.227.728,1.2.86,1.869.227,1.166.414,3.139.852,3.147.132,0,.629-.856.951-1.162a1.708,1.708,0,0,0,.289-.889c.083-.48.124-.972.161-1.46.033-.414.074-.827.074-1.241a5.822,5.822,0,0,0-.112-1.394,2.436,2.436,0,0,0-.579-1.042l-.083-.091a5.488,5.488,0,0,0-1.94-1.307,11.716,11.716,0,0,0-3.284-.715,32.249,32.249,0,0,1-3.346-.414.347.347,0,0,0-.194,0,.306.306,0,0,0-.157.248,1.381,1.381,0,0,0,.558,1.365,7.458,7.458,0,0,1-2.328-.529.471.471,0,0,0-.368,0,.364.364,0,0,0-.145.211,1.315,1.315,0,0,0-.021.6,3.424,3.424,0,0,0,.645,1.654,4.036,4.036,0,0,0,2.233,1.46A6.517,6.517,0,0,0,406.2,180.129Z" transform="translate(-360.328 -175.036)" fill="#263238"/>
        <path id="Path_1071" data-name="Path 1071" d="M415.24,208.187a17.179,17.179,0,0,0,3.135-.939,2.737,2.737,0,0,0,1.125-1.158,3.867,3.867,0,0,1-.641,1.365c-.591.794-3.619,1.373-3.619,1.373Z" transform="translate(-368.498 -193.248)" fill="#f28f8f"/>
        <path id="Path_1072" data-name="Path 1072" d="M416.59,195.281a.484.484,0,0,0,.463.5.5.5,0,1,0-.463-.5Z" transform="translate(-369.289 -186.612)" fill="#263238"/>
        <path id="Path_1073" data-name="Path 1073" d="M418.39,190.693l1,.575a.633.633,0,0,0-.232-.827.546.546,0,0,0-.765.252Z" transform="translate(-370.345 -184.03)" fill="#263238"/>
        <path id="Path_1074" data-name="Path 1074" d="M414.233,204.11l-1.063.414a.554.554,0,0,0,.724.364.62.62,0,0,0,.339-.777Z" transform="translate(-367.284 -192.087)" fill="#f28f8f"/>
        <path id="Path_1075" data-name="Path 1075" d="M406.095,190.8l.91-.728a.538.538,0,0,0-.79-.128A.649.649,0,0,0,406.095,190.8Z" transform="translate(-363.07 -183.708)" fill="#263238"/>
        <path id="Path_1076" data-name="Path 1076" d="M407.219,194.955a.467.467,0,1,0,.467-.5.484.484,0,0,0-.467.5Z" transform="translate(-363.793 -186.422)" fill="#263238"/>
        <path id="Path_1077" data-name="Path 1077" d="M410.8,194.73l-.054,2.94-1.671-.38Z" transform="translate(-364.885 -186.586)" fill="#f28f8f"/>
        <path id="Path_1078" data-name="Path 1078" d="M317.31,250.392l2.593-1.5,1.026-1.245-2.589,1.5-1.03,1.245" transform="translate(-311.066 -217.621)" fill="#5448d6"/>
        <path id="Path_1079" data-name="Path 1079" d="M317.31,250.392l2.593-1.5,1.026-1.245-2.589,1.5-1.03,1.245" transform="translate(-311.066 -217.621)" opacity="0.4"/>
        <path id="Path_1080" data-name="Path 1080" d="M334.36,259.282l2.593-1.5,2.163-1.915-2.589,1.493-2.167,1.919" transform="translate(-321.065 -222.442)" fill="#5448d6"/>
        <path id="Path_1081" data-name="Path 1081" d="M334.36,259.282l2.593-1.5,2.163-1.915-2.589,1.493-2.167,1.919" transform="translate(-321.065 -222.442)" opacity="0.4"/>
        <path id="Path_1082" data-name="Path 1082" d="M337.56,244.583a5.5,5.5,0,0,1,1.071,2.82A5.554,5.554,0,0,1,337.56,244.583Zm6.025.079c-.873-5.934-4.061-11.8-7.857-14a4.678,4.678,0,0,0-4.863-.3l-2.44,1.406-.136.083a3.092,3.092,0,0,0-.314.2,4.233,4.233,0,0,0-.562.463l-.083.079c-.074.074-.153.161-.223.244s-.178.211-.261.323a6.139,6.139,0,0,0-.476.728,4.293,4.293,0,0,0-.211.414L304.849,222l-2.589,1.493v1.654l.219.124.207.12v.331l-.414.244v.959l3.13,6.617,3.093,1.791,1.03-1.241,2.729,1.633,1.567,2.684,1.729,1,2.163-1.919,2.655,1.534.893,3.685,4.462,2.581a24.267,24.267,0,0,0,.827,2.767c.029.091.066.186.1.289,1.48,3.887,3.833,7.216,6.488,8.751a6.659,6.659,0,0,0,1,.484,5.2,5.2,0,0,0,.558.186q.248.066.5.112a4.4,4.4,0,0,0,1.58,0l.215-.054a1.936,1.936,0,0,0,.3-.087l.232-.091a1.362,1.362,0,0,0,.236-.112,2.251,2.251,0,0,0,.223-.112l.108-.066a.173.173,0,0,0,.054-.029c.591-.339,2.047-1.183,2.444-1.406,1.968-1.141,3.242-4.028,3.242-8.11A21.283,21.283,0,0,0,343.585,244.662Z" transform="translate(-302.239 -202.579)" fill="#5448d6"/>
        <path id="Path_1083" data-name="Path 1083" d="M336.8,251.709a4.875,4.875,0,0,1-1.853-3.916c0-1.571.827-2.37,1.853-1.782a4.868,4.868,0,0,1,1.849,3.92C338.646,251.506,337.819,252.3,336.8,251.709Zm4.189-3.437c-.868-5.93-4.057-11.8-7.857-13.994a4.738,4.738,0,0,0-4.714-.393l-.136.083a3.094,3.094,0,0,0-.314.2,4.233,4.233,0,0,0-.562.463l-.083.079c-.074.074-.153.161-.223.244s-.178.211-.261.323a6.133,6.133,0,0,0-.476.728,4.288,4.288,0,0,0-.211.414,10.062,10.062,0,0,0-.827,2.518L302.25,225.61v1.654l.219.124.207.12v.331l-.414.244v.959l3.13,6.617,3.093,1.791,1.03-1.241,2.729,1.633,1.567,2.684,1.729,1L317.7,239.6l2.655,1.534.893,3.685,4.466,2.581a24.28,24.28,0,0,0,.827,2.767c.029.091.066.186.1.289,1.48,3.887,3.834,7.216,6.488,8.751a6.651,6.651,0,0,0,1,.484,5.2,5.2,0,0,0,.558.186q.248.066.5.112a4.405,4.405,0,0,0,1.58,0l.215-.054a1.939,1.939,0,0,0,.3-.087l.232-.091a1.359,1.359,0,0,0,.236-.112,2.248,2.248,0,0,0,.223-.112l.108-.066a.175.175,0,0,0,.054-.029c1.886-1.191,3.1-4.036,3.1-8.019A21.968,21.968,0,0,0,340.986,248.272Z" transform="translate(-302.233 -204.696)" fill="#5448d6"/>
        <path id="Path_1084" data-name="Path 1084" d="M385.011,278.58c0,1.576-.827,2.374-1.849,1.782a4.881,4.881,0,0,1-1.853-3.916c0-1.576.827-2.374,1.853-1.782a2.638,2.638,0,0,1,.757.695,5.533,5.533,0,0,0,1.071,2.82A3.269,3.269,0,0,1,385.011,278.58Z" transform="translate(-348.599 -233.349)" opacity="0.4"/>
        <path id="Path_1085" data-name="Path 1085" d="M380.92,258.888c0,4.082-1.274,6.968-3.242,8.11-.414.223-1.853,1.067-2.444,1.406,1.886-1.191,3.1-4.036,3.1-8.019a21.972,21.972,0,0,0-.24-3.147c-.868-5.93-4.057-11.8-7.857-13.994a4.738,4.738,0,0,0-4.714-.393l2.44-1.406a4.678,4.678,0,0,1,4.863.3c3.8,2.2,6.989,8.064,7.857,14a21.284,21.284,0,0,1,.24,3.143Z" transform="translate(-339.339 -213.662)" fill="#fff" opacity="0.4"/>
        <path id="Path_1086" data-name="Path 1086" d="M392.107,285.232c0,3.982-1.212,6.828-3.1,8.019.591-.339,2.047-1.183,2.444-1.406,1.968-1.141,3.242-4.028,3.242-8.11v-.455l-2.589,1.5C392.1,284.938,392.107,285.087,392.107,285.232Z" transform="translate(-353.115 -238.517)" fill="#5448d6"/>
        <path id="Path_1087" data-name="Path 1087" d="M392.107,285.232c0,3.982-1.212,6.828-3.1,8.019.591-.339,2.047-1.183,2.444-1.406,1.968-1.141,3.242-4.028,3.242-8.11v-.455l-2.589,1.5C392.1,284.938,392.107,285.087,392.107,285.232Z" transform="translate(-353.115 -238.517)" opacity="0.1"/>
        <path id="Path_1088" data-name="Path 1088" d="M325.427,243.3v.839L302.26,230.766l.426-.248v-.347Z" transform="translate(-302.239 -207.37)" opacity="0.15"/>
        <path id="Path_1089" data-name="Path 1089" d="M325.427,244.134v.492L302.26,231.252l.426-.248v0Z" transform="translate(-302.239 -207.857)" opacity="0.15"/>
        <path id="Path_1090" data-name="Path 1090" d="M369.409,271.943a4.962,4.962,0,0,1-2.481-.74c-3.776-2.179-6.848-8.664-6.848-14.453,0-3.379,1.021-5.9,2.8-6.931a4.091,4.091,0,0,1,4.251.261c3.771,2.179,6.844,8.684,6.844,14.474,0,3.375-1.021,5.9-2.8,6.927A3.519,3.519,0,0,1,369.409,271.943Zm-4.735-22.186a3.127,3.127,0,0,0-1.571.414c-1.625.939-2.6,3.4-2.6,6.575,0,5.657,2.978,11.993,6.642,14.093a3.671,3.671,0,0,0,3.833.265c1.625-.939,2.6-3.4,2.6-6.571,0-5.661-2.978-11.993-6.637-14.1a4.549,4.549,0,0,0-2.266-.662Z" transform="translate(-336.148 -218.612)" opacity="0.15"/>
        <path id="Path_1091" data-name="Path 1091" d="M326.109,234.279a10.063,10.063,0,0,0-.827,2.518L302.21,223.473l2.589-1.493Z" transform="translate(-302.21 -202.567)" fill="#fff" opacity="0.4"/>
        <path id="Path_1092" data-name="Path 1092" d="M406.058,232.007c1.208-2.287,2.589-7.423,3.275-10.016.976-3.681-.6-6-2.4-6.091-1.121.174-4.814,13.6-4.814,13.6-.414.327-6.025,3.176-7.828,3.891a1.414,1.414,0,0,1-1,0,8.011,8.011,0,0,0-2.3-.339c-.666-.066-1-.3-1.088-.161a.761.761,0,0,0,.327.98,5.434,5.434,0,0,0,1.158.5,7.068,7.068,0,0,1-2.237.3c-1.737-.037-2.361.715-1.013,2.481.827,1.1,2.2,1.447,5.252.393.877-.306,2.068-.9,3.18-1.3,2.291-.827,2.895-.926,4.64-1.518C403.75,233.877,405.52,233.025,406.058,232.007Z" transform="translate(-352.173 -199.001)" fill="#ffa8a7"/>
        <path id="Path_1093" data-name="Path 1093" d="M427.7,215.06a3.684,3.684,0,0,1,2.692,1.241c.624.86,1.125,2.068.513,5.355a51.389,51.389,0,0,1-1.877,6.815s-2.456,1.05-5.066-1.613l1.795-6.939S426.044,215.407,427.7,215.06Z" transform="translate(-373.611 -198.509)" fill="#455a64"/>
      </g>
    </g>
  </g>
</svg>
