<svg xmlns="http://www.w3.org/2000/svg" width="209.267" height="74.303" viewBox="0 0 209.267 74.303">
  <g id="LOGO" transform="translate(-34.2 -207.375)">
    <g id="Layer_1" transform="translate(34.2 218.593)">
      <g id="Group_1" data-name="Group 1" transform="translate(0)">
        <path id="Path_1" data-name="Path 1" d="M87.135,372.511H80.582c-.128,4.882-1.349,8.48-3.726,10.793-2.377,2.281-5.621,3.437-9.765,3.437h-16a21.887,21.887,0,0,1-7.87-1.478,15.367,15.367,0,0,1-6.456-4.593,11.521,11.521,0,0,1-2.57-7.581,38.934,38.934,0,0,1,.482-5.332q.193-1.3.385-2.505a3.682,3.682,0,0,1,4.24-3.051h0a3.693,3.693,0,0,1,3.084,4.111c-.064.546-.128,1.092-.193,1.67a36.784,36.784,0,0,0-.321,3.983A7.348,7.348,0,0,0,43,375.916a8.052,8.052,0,0,0,3.116,2.827,10.252,10.252,0,0,0,4.658,1.028H66.61a5.948,5.948,0,0,0,4.593-1.606c.964-1.06,1.445-2.955,1.478-5.621H72.52A19.072,19.072,0,0,1,67.8,372a5.991,5.991,0,0,1-.707-.225,3.394,3.394,0,0,1-1.863-4.882l.032-.064a3.426,3.426,0,0,1,3.983-1.574c.1.032.161.032.257.064a19.431,19.431,0,0,0,3.565.225H87.135Z" transform="translate(-34.2 -323.655)" fill="#212121"/>
        <path id="Path_2" data-name="Path 2" d="M219.782,302.481v7H199v-7h7.067V273.154a3.866,3.866,0,0,1,3.854-3.854h0a3.866,3.866,0,0,1,3.854,3.854v29.326Z" transform="translate(-146.065 -260.627)" fill="#212121"/>
        <path id="Path_3" data-name="Path 3" d="M288.561,299.7v7H263.7v-7h8.544V281.839a3.866,3.866,0,0,1,3.854-3.854h0a3.866,3.866,0,0,1,3.854,3.854V299.7ZM272.5,265.2h7.067v7.452H272.5Z" transform="translate(-189.983 -257.844)" fill="#212121"/>
        <path id="Path_4" data-name="Path 4" d="M376.336,325.628v7H341.1v-7h21.649V314.835a5.511,5.511,0,0,0-1.06-3.694c-.707-.835-1.927-1.221-3.63-1.221-3.533.128-6.585.225-9.187.353h-.128a2.82,2.82,0,0,1-2.923-2.666h0a2.78,2.78,0,0,1,2.248-2.859c1.445-.289,3.084-.578,4.882-.8a60.073,60.073,0,0,1,7.163-.546c3.6,0,6.2.771,7.837,2.281s2.473,3.919,2.505,7.2V325.66h5.878Z" transform="translate(-242.521 -283.774)" fill="#212121"/>
        <path id="Path_5" data-name="Path 5" d="M496.19,269.86a49.553,49.553,0,0,1,.482,5.332v15.964h-11.82a10.662,10.662,0,0,1-3.63-.642,10.519,10.519,0,0,1-2.827-1.478,8.152,8.152,0,0,1-5.75,2.12H450.9v-7h8.769V268.832a3.509,3.509,0,0,1,3.5-3.5h.707a3.509,3.509,0,0,1,3.5,3.5v15.322h2.634a3.874,3.874,0,0,0,3.373-1.734,7.99,7.99,0,0,0,1.188-4.5v-9.09a3.509,3.509,0,0,1,3.5-3.5h.707a3.509,3.509,0,0,1,3.5,3.5v9.09a21.581,21.581,0,0,1-.578,5.236,5.286,5.286,0,0,0,1.349.707,4.452,4.452,0,0,0,1.7.321h4.3v-7.87c0-2.441-.032-4.529-.129-6.231-.032-1-.128-2.248-.225-3.79a3.515,3.515,0,0,1,3.341-3.758h0a3.49,3.49,0,0,1,3.6,2.955C495.773,266.9,496,268.382,496.19,269.86Zm-25.054-19.626h5.91v6.874h-5.91Zm4.593-7.934h5.525v6.424h-5.525Zm4.111,7.934h5.91v6.874h-5.91Z" transform="translate(-317.053 -242.3)" fill="#212121"/>
      </g>
    </g>
    <g id="Layer_3" transform="translate(221.881 227.266)">
      <path id="Path_6" data-name="Path 6" d="M622.321,269.3h0a3.866,3.866,0,0,1,3.854,3.854v36.329H618.5V273.154A3.8,3.8,0,0,1,622.321,269.3Z" transform="translate(-618.499 -269.3)" fill="#212121"/>
    </g>
    <g id="Layer_2" transform="translate(215.008 218.489)">
      <path id="Path_7" data-name="Path 7" d="M597.1,246.576l3.18,3.18a11.244,11.244,0,0,1,15.868,0l3.18-3.18A15.723,15.723,0,0,0,597.1,246.576Z" transform="translate(-597.1 -241.975)" fill="#212121"/>
    </g>
    <g id="Layer_4" transform="translate(212.085 213.366)">
      <path id="Path_8" data-name="Path 8" d="M588,231.831l2.538,2.538a16.265,16.265,0,0,1,22.966,0l2.538-2.538A19.832,19.832,0,0,0,588,231.831Z" transform="translate(-588 -226.025)" fill="#212121"/>
    </g>
    <g id="Layer_5" transform="translate(208.776 207.375)">
      <path id="Path_9" data-name="Path 9" d="M577.7,214.578l3.148,3.148a20.085,20.085,0,0,1,28.395,0l3.148-3.148A24.485,24.485,0,0,0,577.7,214.578Z" transform="translate(-577.7 -207.375)" fill="#212121"/>
    </g>
  </g>
</svg>
