<svg id="phone-call" xmlns="http://www.w3.org/2000/svg" width="17.492" height="16.413" viewBox="0 0 17.492 16.413">
  <path id="Path_991" data-name="Path 991" d="M42.54,10.358a.293.293,0,0,1-.3-.283A6.74,6.74,0,0,0,35.3,3.566.284.284,0,1,1,35.3,3a7.326,7.326,0,0,1,7.54,7.075A.293.293,0,0,1,42.54,10.358Z" transform="translate(-25.349 -3)" fill="#4a4a4a"/>
  <path id="Path_992" data-name="Path 992" d="M38.921,18.962a.293.293,0,0,1-.3-.283A3.224,3.224,0,0,0,35.3,15.566a.284.284,0,1,1,0-.566,3.81,3.81,0,0,1,3.921,3.679.293.293,0,0,1-.3.283Z" transform="translate(-25.349 -11.604)" fill="#4a4a4a"/>
  <path id="Path_993" data-name="Path 993" d="M14.678,13.137l-1.426,1.67A14.618,14.618,0,0,1,7.907,9.793L9.689,8.456a1.092,1.092,0,0,0,.35-1.348L8.414,3.675A1.236,1.236,0,0,0,7,3.036L3.91,3.789a1.147,1.147,0,0,0-.9,1.262c1.115,7.45,7.355,13.3,15.294,14.351a1.219,1.219,0,0,0,1.345-.843l.8-2.9a1.119,1.119,0,0,0-.681-1.325l-3.657-1.524a1.263,1.263,0,0,0-1.437.329Z" transform="translate(-3 -3)" fill="#181441"/>
</svg>
